# xmcd CD database file
#
# Track frame offsets:
#	150
#	12487
#	30305
#	42078
#	58134
#	73410
#	92635
#	105054
#	116869
#	126165
#	142638
#	161381
#	181246
#	197396
#	221877
#
# Disc length: 3204 seconds
#
# Revision: 0
# Processed by: cddbd v1.5.2PL0 Copyright (c) Steve Scherf et al.
# Submitted via: CDex 1.70beta2
#
DISCID=c70c820f
DTITLE=Dotschy Reinhardt - Chaplin's Secret
DYEAR=2018
DGENRE=Jazz
TTITLE0=Django's Tiger
TTITLE1=Romanes
TTITLE2=After I Say I am Sorry
TTITLE3=Not Now Maybe Then
TTITLE4=Pardon Me Sir
TTITLE5=Chaplin's Secret
TTITLE6=Where's Django
TTITLE7=Here Goes
TTITLE8=Fly Away
TTITLE9=Da Vinci's Eyes
TTITLE10=Carnaval No Rio
TTITLE11=Last Time This Year
TTITLE12=Swing Little Girl
TTITLE13=Brazasia
TTITLE14=Save Your Goodbyes
EXTD=YEAR: 2018
EXTT0=
EXTT1=
EXTT2=
EXTT3=
EXTT4=
EXTT5=
EXTT6=
EXTT7=
EXTT8=
EXTT9=
EXTT10=
EXTT11=
EXTT12=
EXTT13=
EXTT14=
PLAYORDER=
